<svg width="20" height="20" viewBox="0 0 20 20" fill="none" xmlns="http://www.w3.org/2000/svg">
<path d="M10 11.0834C9.8917 11.0834 9.78336 11.0584 9.68336 11L2.32503 6.74171C2.03336 6.56671 1.92503 6.18338 2.10003 5.88338C2.27503 5.58338 2.65836 5.48338 2.95836 5.65838L10 9.73338L17 5.68338C17.3 5.50838 17.6834 5.61671 17.8584 5.90838C18.0334 6.20838 17.925 6.59171 17.6334 6.76671L10.325 11C10.2167 11.05 10.1084 11.0834 10 11.0834Z" fill="#1B5E37"/>
<path d="M10 18.6335C9.65833 18.6335 9.375 18.3502 9.375 18.0085V10.4502C9.375 10.1085 9.65833 9.8252 10 9.8252C10.3417 9.8252 10.625 10.1085 10.625 10.4502V18.0085C10.625 18.3502 10.3417 18.6335 10 18.6335Z" fill="#1B5E37"/>
<path d="M10 18.9587C9.2667 18.9587 8.5417 18.8003 7.9667 18.4837L3.5167 16.0087C2.30837 15.342 1.3667 13.7337 1.3667 12.3503V7.64199C1.3667 6.25866 2.30837 4.65866 3.5167 3.98366L7.9667 1.51699C9.10837 0.883659 10.8917 0.883659 12.0334 1.51699L16.4834 3.99199C17.6917 4.65866 18.6334 6.26699 18.6334 7.65033V12.3587C18.6334 13.742 17.6917 15.342 16.4834 16.017L12.0334 18.4837C11.4584 18.8003 10.7334 18.9587 10 18.9587ZM10 2.29199C9.47503 2.29199 8.95837 2.40033 8.57503 2.60866L4.12503 5.08366C3.32503 5.52533 2.6167 6.72533 2.6167 7.64199V12.3503C2.6167 13.267 3.32503 14.467 4.12503 14.917L8.57503 17.392C9.33337 17.817 10.6667 17.817 11.425 17.392L15.875 14.917C16.675 14.467 17.3834 13.2753 17.3834 12.3503V7.64199C17.3834 6.72533 16.675 5.52533 15.875 5.07533L11.425 2.60033C11.0417 2.40033 10.525 2.29199 10 2.29199Z" fill="#1B5E37"/>
</svg>
