<svg width="21" height="20" viewBox="0 0 21 20" fill="none" xmlns="http://www.w3.org/2000/svg">
<path d="M10.5 10.6243C7.85837 10.6243 5.70837 8.47435 5.70837 5.83268C5.70837 3.19102 7.85837 1.04102 10.5 1.04102C13.1417 1.04102 15.2917 3.19102 15.2917 5.83268C15.2917 8.47435 13.1417 10.6243 10.5 10.6243ZM10.5 2.29102C8.55004 2.29102 6.95837 3.88268 6.95837 5.83268C6.95837 7.78268 8.55004 9.37435 10.5 9.37435C12.45 9.37435 14.0417 7.78268 14.0417 5.83268C14.0417 3.88268 12.45 2.29102 10.5 2.29102Z" fill="#1B5E37"/>
<path d="M17.6585 18.9583C17.3168 18.9583 17.0335 18.675 17.0335 18.3333C17.0335 15.4583 14.1001 13.125 10.5001 13.125C6.90013 13.125 3.9668 15.4583 3.9668 18.3333C3.9668 18.675 3.68346 18.9583 3.3418 18.9583C3.00013 18.9583 2.7168 18.675 2.7168 18.3333C2.7168 14.775 6.20846 11.875 10.5001 11.875C14.7918 11.875 18.2835 14.775 18.2835 18.3333C18.2835 18.675 18.0001 18.9583 17.6585 18.9583Z" fill="#1B5E37"/>
</svg>
