<svg 
          width="16" 
          height="16" fill="none" 
          xmlns="http://www.w3.org/2000/svg">
          <path d="M 15 7 L 9 7 L 9 1 C 9 0.4477187395095825 8.552281260490417 0 8 0 C 7.4477187395095825 0 7 0.4477187395095825 7 1 L 7 7 L 1 7 C 0.4477187395095825 7 0 7.4477187395095825 0 8 C 0 8.552281260490417 0.4477187395095825 9 1 9 L 7 9 L 7 15 C 7 15.552281260490417 7.4477187395095825 16 8 16 C 8.552281260490417 16 9 15.552281260490417 9 15 L 9 9 L 15 9 C 15.552281260490417 9 16 8.552281260490417 16 8 C 16 7.4477187395095825 15.552281260490417 7 15 7 Z" fill="rgb(255,255,255)"/>
        </svg>